PathFileType	4	(X/Y/Z)	C:/Users/beibeiliu/ov580/test_trc/capture2\sequence.9_training_dense_left.trc
DataRate	CameraRate	NumFrames	NumMarkers	Units	OrigDataRate	OrigDataStartFrame	OrigNumFrames
120	120	18	19	mm	120	241	384
Frame#	Time	ThumbCMC			ThumbMCP			ThumbIP			ThumbTip			IndexMCP			IndexPIP			IndexTip			MiddleMCP			MiddlePIP			MiddleTip			RingMCP			RingPIP			RingTip			PinkyMCP			PinkyPIP			PinkyTip			BackHand1			BackHand2			BackHand3	
		X0	Y0	Z0	X1	Y1	Z1	X2	Y2	Z2	X3	Y3	Z3	X4	Y4	Z4	X5	Y5	Z5	X6	Y6	Z6	X7	Y7	Z7	X8	Y8	Z8	X9	Y9	Z9	X10	Y10	Z10	X11	Y11	Z11	X12	Y12	Z12	X13	Y13	Z13	X14	Y14	Z14	X15	Y15	Z15	X16	Y16	Z16	X17	Y17	Z17	X18	Y18	Z18	
240	2	-88.7009	78.1808	-16.0726	-67.6419	83.1741	-29.463	-46.0139	96.0381	-39.2299	-28.7811	105.292	-45.4543	-79.2475	134.573	-71.9996	-75.2164	147.31	-88.6832	-71.733	168.063	-108.607	-99.2207	139.672	-77.5883	-91.1665	158.859	-99.8821	-83.9323	175.408	-116.785	-117.513	136.562	-83.2284	-112.748	154.183	-103.387	-105.218	171.931	-118.73	-139.198	127.679	-82.1196	-127.821	143.363	-96.2955	-120.387	161.874	-105.412	-134.807	115.123	-40.5029	-146.386	104.084	-18.7541	-110.207	108.081	-22.6373	
241	2.00833	-89.3631	79.7509	-25.2738	-64.2518	84.4019	-35.9877	-46.2922	93.1915	-45.6179	-24.3488	101.6	-49.1828	-78.3848	130.242	-80.6589	-71.546	139.941	-96.7919	-71.9133	156.352	-118.164	-94.0362	135.64	-88.2701	-85.9273	147.633	-108.552	-81.7173	165.36	-131.567	-116.756	131.406	-92.4514	-110.637	142.305	-110.098	-101.425	158.045	-128.921	-131.421	122.008	-88.827	-128.487	132.678	-103.993	-118.743	151.85	-122.685	-135.449	112.209	-48.2619	-140.504	102.393	-23.9275	-109.72	106.139	-27.5484	
242	2.01667	-84.7364	81.7767	-25.886	-64.3055	80.9379	-37.7316	-39.64	90.1689	-48.9087	-22.9714	96.8105	-56.457	-76.7485	123.59	-87.6245	-69.8797	136.27	-110.878	-66.379	149.279	-130.108	-94.6982	130.866	-98.6969	-90.0458	141.891	-121.276	-79.5447	156.909	-143.743	-113.168	126.145	-103.378	-109.328	134.14	-119.878	-102.121	149.401	-141.216	-133.079	116.706	-100.288	-124.498	124.211	-116.737	-120.127	140.035	-132.887	-131.459	111.195	-54.4286	-141.687	106.399	-32.3506	-106.485	105.038	-32.9588	
243	2.025	-88.8834	73.2882	-26.4244	-67.7955	76.011	-39.8662	-43.8095	85.6699	-48.4313	-23.2937	94.9426	-59.3602	-79.5485	117.825	-90.9188	-69.3273	126.726	-111.004	-69.2203	141.616	-134.135	-93.9225	125.498	-101.596	-89.4867	133.319	-125.076	-79.7775	146.39	-150.663	-112.754	121.697	-105.945	-103.871	130.214	-126.87	-98.4302	140.994	-146.381	-129.202	111.073	-100.16	-118.582	121.613	-121.751	-111.869	134.178	-133.502	-132.816	109.241	-60.621	-144.937	98.835	-32.8549	-108.445	100.98	-35.9066	
244	2.03333	-82.0988	72.4484	-30.6685	-60.3992	75.988	-38.2703	-39.5573	88.2247	-54.2471	-25.7972	96.7697	-67.8921	-78.5312	114.34	-95.0853	-71.4655	124.492	-119.983	-68.1478	133.433	-137.804	-96.2849	123.402	-106.517	-91.5949	128.407	-124.491	-81.9899	141.374	-153.652	-111.506	118.076	-105.611	-108.882	124.541	-126.602	-103.326	137.225	-151.274	-132.88	112.342	-102.828	-126.656	115.679	-120.312	-117.572	127.884	-137.256	-130.721	107.897	-54.1256	-134.205	94.7171	-29.7862	-100.507	97.729	-36.0145	
245	2.04167	-85.3665	69.1342	-31.694	-61.0149	72.565	-45.0727	-37.63	85.9492	-57.6211	-24.4864	91.315	-68.4993	-77.2988	110.063	-99.2895	-71.8791	115.884	-121.279	-71.7515	125.807	-144.6	-95.0873	118.544	-106.706	-89.5534	123.708	-129.873	-85.04	133.496	-156.449	-114.414	115.895	-108.838	-112.166	123.485	-132.788	-103.477	131.412	-155.921	-134.723	107.092	-105.406	-126.974	110.28	-125.661	-122.216	120.978	-143.936	-130.692	106.545	-55.7942	-136.825	94.0049	-30.7574	-102.963	97.9672	-42.4695	
246	2.05	-77.5932	77.1173	-39.4593	-57.0503	81.0785	-53.188	-32.3395	90.5446	-62.2334	-12.4848	97.8543	-70.0334	-77.6428	112.607	-111.764	-76.3869	121.174	-133.971	-77.6245	131.901	-156.686	-98.3359	118.388	-119.499	-91.539	124.009	-142.736	-91.7772	133.634	-166.205	-120.449	114.768	-119.028	-112.615	118.192	-141.781	-111.613	129.098	-167.655	-134.528	105.952	-112.336	-128.154	107.868	-131.068	-126.313	120.435	-153.654	-124.665	106.944	-65.5275	-130.338	97.2088	-37.5322	-96.498	101.186	-51.6842	
247	2.05833	-83.9383	75.9974	-39.1011	-60.4465	77.824	-49.722	-39.3168	86.6999	-63.7937	-19.67	92.9181	-69.7784	-80.3356	109.786	-111.684	-78.8665	114.562	-133.795	-77.5523	124.532	-158.359	-91.5304	114.413	-121.577	-87.1006	119.188	-144.057	-82.3145	126.789	-170.881	-113.69	109.482	-121.468	-103.974	113.314	-141.646	-97.7431	123.88	-171.068	-128.456	103.481	-119.439	-123.091	107.695	-136.652	-116.246	118.5	-155.77	-125.681	105.828	-74.476	-134.083	98.2871	-45.1015	-105.341	101.257	-52.0839	
248	2.06667	-87.8811	70.9684	-39.8448	-65.2909	68.2649	-49.7578	-45.363	74.3805	-63.5437	-22.1506	80.3939	-72.3505	-83.8681	103.626	-106.862	-82.7763	107.239	-129.864	-78.8127	114.178	-155.323	-98.2359	109.875	-118.919	-97.116	111.537	-142.089	-91.2989	118.772	-169.032	-116.01	104.312	-119.511	-109.194	109.289	-143.813	-106.703	118.36	-168.139	-135.305	95.9675	-114.936	-130.669	99.8725	-132.687	-123.351	113.006	-152.76	-136.392	99.4083	-69.6253	-141.24	94.7873	-44.4269	-106.096	95.6461	-46.0385	
249	2.075	-85.4243	70.7669	-39.3218	-59.5049	71.6039	-55.17	-41.5043	75.2413	-66.213	-25.0549	78.1848	-78.7071	-82.4073	96.1445	-114.586	-77.327	101.85	-137.167	-72.688	111.679	-160.195	-98.921	101.418	-120.41	-97.5803	107.303	-145.703	-93.625	117.82	-172.901	-116.673	98.2288	-123.664	-115.011	103.424	-147.532	-112.209	112.024	-169.253	-140.052	90.415	-116.683	-131.133	93.1355	-134.088	-125.704	106.753	-154.327	-131.792	97.6811	-76.4204	-136.443	94.5802	-46.8983	-102.297	93.7154	-53.9895	
250	2.08333	-87.4525	61.0308	-40.69	-64.9122	60.69	-56.3427	-48.1202	63.1056	-67.183	-29.2066	66.5379	-78.4364	-85.1019	87.9997	-116.52	-80.9597	92.0587	-139.56	-83.903	97.3026	-163.553	-97.0586	93.121	-123.234	-90.6963	96.1102	-149.732	-82.6749	101.709	-172.777	-120.508	89.5072	-126.194	-108.334	92.8699	-148.899	-105.856	100.589	-174.423	-135.466	82.1698	-121.937	-128.515	87.3591	-140.937	-125.975	97.1541	-156.283	-131.87	88.9854	-78.6616	-142.903	82.676	-48.0297	-107.483	85.8999	-57.53	
251	2.09167	-88.6427	58.6135	-46.1325	-69.3729	51.6087	-59.3672	-44.8279	56.603	-72.9695	-27.9387	56.9429	-79.3756	-79.4349	79.4508	-119.348	-78.7907	81.4406	-142.625	-79.0337	87.1802	-166.776	-94.2823	84.489	-128.996	-87.5835	87.1094	-151.994	-80.6359	94.1577	-182.006	-116.191	81.2211	-130.173	-110.165	85.1052	-154.575	-101.7	92.6008	-179.594	-135.148	74.2176	-125.317	-124.779	77.2375	-143.342	-117.912	89.8195	-160.431	-133.408	84.6033	-85.8645	-139.932	84.2859	-56.3635	-108.217	83.5372	-59.9155	
252	2.1	-87.4256	52.4482	-43.682	-69.8794	45.4212	-56.9027	-48.412	46.3983	-69.7158	-28.3017	47.397	-81.1651	-86.2555	66.0969	-117.156	-82.6519	68.5146	-142.622	-87.2668	74.0486	-167.53	-100.042	72.4198	-128.579	-88.202	74.7155	-153.42	-82.9414	79.0691	-178.137	-118.03	69.1997	-128.311	-110.184	71.6111	-151.745	-104.089	77.1813	-174.919	-138.508	63.325	-121.66	-130.023	66.0291	-141.464	-123.759	80.1811	-162.635	-131.822	75.1108	-84.5306	-138.686	80.0878	-54.7453	-108.237	74.1095	-60.602	
253	2.10833	-88.1745	43.9413	-45.317	-69.0988	38.4746	-57.1715	-45.0539	41.3892	-71.2511	-27.4283	40.9221	-76.5564	-81.6242	62.9002	-120.378	-78.5055	63.2108	-140.991	-77.8613	67.697	-166.364	-95.9388	67.1635	-128.15	-90.1006	68.6292	-153.331	-84.0534	73.371	-182.357	-113.971	65.9203	-131.037	-105.314	67.4247	-155.251	-96.2251	71.6986	-181.033	-132.265	60.707	-126.707	-127.488	59.1577	-145.099	-118.661	67.557	-166.413	-132.893	74.9163	-84.6559	-137.862	71.8574	-54.7398	-104.25	68.2555	-57.9111	
254	2.11667	-94.3726	38.6873	-48.3118	-70.1427	31.2953	-58.8528	-48.3331	33.3363	-73.1285	-32.2046	33.0695	-78.1995	-80.7439	56.5612	-119.673	-83.0975	56.9355	-142.536	-81.3481	62.0527	-172.439	-97.9252	61.83	-134.412	-89.5344	59.9815	-155.886	-85.8829	63.1147	-182.33	-115.285	58.9905	-131.442	-112.551	60.8817	-156.384	-102.229	64.7439	-179.079	-135.934	54.7454	-125.208	-129.818	54.9987	-146.326	-122.615	64.7164	-164.977	-132.111	67.8249	-83.5605	-141.074	66.0441	-55.563	-109.907	62.5168	-60.5452	
255	2.125	-90.4559	35.1713	-45.2762	-70.7695	26.3255	-57.4855	-48.1522	27.1343	-73.0931	-29.0887	28.8637	-82.595	-83.6925	51.5248	-123.792	-81.3565	49.993	-146.729	-80.5366	52.2846	-170.433	-98.936	55.2079	-134.336	-96.3771	53.7218	-157.359	-90.6248	55.1422	-185.309	-117.842	53.6589	-136.446	-112.712	52.9863	-156.497	-107.725	55.9096	-183.546	-137.32	47.1297	-124.668	-130.473	49.3364	-145.213	-120.797	60.3562	-167.15	-132.194	62.5954	-86.4143	-142.342	62.6456	-56.0052	-111.796	61.3746	-63.9327	
256	2.13333	-88.2714	35.3369	-49.7009	-62.7832	27.9771	-63.7945	-43.8264	25.8495	-75.5122	-24.7868	24.0864	-84.6443	-80.8548	44.2078	-124.225	-81.9616	44.2477	-152.758	-81.4638	48.9255	-177.147	-96.1911	51.4505	-138.225	-89.0426	50.1689	-159.41	-81.1388	52.9048	-190.948	-116.005	48.7324	-136.966	-112.133	48.0047	-156.582	-108.428	52.6415	-183.437	-137.943	45.6886	-130.715	-126.482	43.7875	-149.496	-119.256	52.2709	-169.3	-128.448	59.3209	-88.2055	-134.386	65.352	-60.2854	-102.925	59.4351	-68.5036	
257	2.14167	-83.795	30.9838	-46.7049	-64.5671	24.9422	-62.8303	-40.4078	26.4038	-75.6236	-21.4932	26.1563	-82.8575	-82.783	44.883	-128.163	-77.5263	42.5933	-148.782	-76.3559	46.2144	-174.321	-96.1962	48.6012	-139.922	-91.7732	46.9167	-159.531	-88.9812	46.8323	-190.041	-114.981	47.0984	-140.987	-112.359	46.0659	-160.381	-104.413	47.8232	-188.223	-134.4	43.6313	-131.275	-124.848	40.5845	-150.957	-120.105	49.357	-169.434	-128.178	59.0142	-90.6427	-135.454	60.9556	-61.9979	-100.104	53.4799	-67.5809	
